<?xml version="1.0" encoding="iso-8859-1"?>
<!-- Generator: Adobe Illustrator 18.0.0, SVG Export Plug-In . SVG Version: 6.00 Build 0)  -->
<!DOCTYPE svg PUBLIC "-//W3C//DTD SVG 1.1//EN" "http://www.w3.org/Graphics/SVG/1.1/DTD/svg11.dtd">
<svg xmlns="http://www.w3.org/2000/svg" xmlns:xlink="http://www.w3.org/1999/xlink" version="1.1" id="Capa_1" x="0px" y="0px" viewBox="0 0 59.99 59.99" style="enable-background:new 0 0 59.99 59.99;" xml:space="preserve" width="512px" height="512px">
<path d="M55.309,18.99h-4.751v-1h2v-2h-2v-1h5.168l-0.106-1.097c-0.099-1.021-0.254-1.482-0.435-2.019  c-0.087-0.26-0.188-0.559-0.304-0.995c-0.818-3.095-3.213-6.049-6.743-8.318c-4.516-2.903-10.814-3.38-16.045-1.216L31.9,1.426  c-0.095,0.042-0.188,0.083-0.282,0.116c-0.465,0.161-0.822,0.299-1.113,0.412c-0.923,0.358-0.924,0.357-2.442-0.09  c-3.246-0.957-9.393-2.315-14.086-0.649C8.234,3.25,5.066,7.522,4.561,13.911L4.476,14.99h5.082v1h-2v2h2v1H4.41l-0.073,0.921  c-0.126,1.599-0.091,1.902,0.115,3.25l0.063,0.414c0.186,1.236,0.367,2.481,0.549,3.733c1.312,9.016,2.668,18.339,6.155,26.756  l0.119,0.289c0.866,2.108,2.315,5.637,4.837,5.637h0.203l0.187-0.079c2.314-0.98,3.18-3.201,3.812-4.823  c0.427-1.095,0.807-2.211,1.174-3.29c0.483-1.418,0.954-2.794,1.516-4.114c1.27,2.585,3.865,6.8,7.292,6.8  c0.402,0,0.816-0.058,1.24-0.184c2.252-0.668,3.382-2.993,4.208-4.691l0.068-0.141c0.174-0.357,0.395-0.771,0.633-1.22  c0.238-0.447,0.498-0.945,0.754-1.455c0.25,0.806,0.468,1.634,0.682,2.456c0.239,0.914,0.485,1.859,0.772,2.741  c1.21,3.729,2.783,7.573,5.268,7.829c1.307,0.131,2.516-0.75,3.588-2.631c1.958-3.431,2.797-7.253,3.609-10.949l0.289-1.304  c0.405-1.808,0.875-3.647,1.331-5.428c1.603-6.271,3.26-12.756,2.594-19.614L55.309,18.99z M6.671,12.99  c0.685-4.993,3.302-8.233,7.975-9.89c4.318-1.53,10.426-0.031,12.853,0.683c1.991,0.588,2.304,0.591,3.731,0.036  c0.273-0.105,0.608-0.235,1.047-0.388c0.141-0.049,0.279-0.108,0.42-0.169l0.161-0.069c4.645-1.921,10.218-1.509,14.199,1.05  c3.109,1.999,5.201,4.538,5.891,7.148c0.13,0.491,0.243,0.828,0.342,1.121c0.058,0.174,0.108,0.322,0.152,0.478h-2.883h-41H6.671z   M11.558,14.99h37v1h-37V14.99z M11.558,17.99h37v1h-37V17.99z M34.744,47.308c-0.251,0.472-0.482,0.908-0.666,1.284l-0.069,0.141  c-0.7,1.44-1.571,3.231-2.978,3.648c-3.327,1.002-6.392-6.003-6.73-6.804l-0.088-0.211c0.106-0.188,0.208-0.359,0.309-0.526  c0.134-0.217,0.267-0.434,0.413-0.646c1.197-1.752,4.427-5.561,8.555-3.101c0.321,0.191,0.611,0.409,0.883,0.643  c0.101,0.087,0.194,0.188,0.291,0.283c0.156,0.151,0.309,0.304,0.45,0.469c0.133,0.157,0.259,0.328,0.383,0.502  c0.079,0.109,0.158,0.218,0.232,0.331c0.161,0.251,0.316,0.517,0.464,0.802c0.015,0.029,0.031,0.057,0.046,0.087  C35.848,45.232,35.265,46.328,34.744,47.308z M50.864,39.012c-0.458,1.794-0.933,3.649-1.344,5.485L49.23,45.81  c-0.78,3.55-1.587,7.221-3.394,10.387c-0.607,1.065-1.215,1.705-1.647,1.632c-0.458-0.047-1.723-0.771-3.569-6.456  c-0.269-0.827-0.497-1.702-0.739-2.629c-0.789-3.023-1.674-6.399-4.247-8.567c-0.006-0.005-0.013-0.01-0.02-0.015  c-0.338-0.283-0.701-0.548-1.101-0.786c-3.818-2.274-8.12-0.858-11.23,3.69c-1.732,2.534-2.694,5.357-3.624,8.087  c-0.361,1.059-0.733,2.153-1.145,3.208c-0.64,1.642-1.239,2.96-2.511,3.607c-1.134-0.283-2.345-3.231-2.815-4.375l-0.121-0.295  C9.677,45.112,8.338,35.915,7.044,27.02c-0.183-1.255-0.364-2.504-0.551-3.742l-0.064-0.42c-0.135-0.886-0.185-1.209-0.158-1.868  h3.287h41h2.921C53.888,27.18,52.352,33.191,50.864,39.012z" fill="#FFFFFF"/>
<g>
</g>
<g>
</g>
<g>
</g>
<g>
</g>
<g>
</g>
<g>
</g>
<g>
</g>
<g>
</g>
<g>
</g>
<g>
</g>
<g>
</g>
<g>
</g>
<g>
</g>
<g>
</g>
<g>
</g>
</svg>
